# xmcd
#
# Track frame offsets:
#	225
#	18036
#	28959
#	47955
#	61621
#	72663
#	84870
#	93989
#	110591
#	129024
#
# Disc length: 1918 seconds
#
# Revision: 0
# Processed by: cddbd v1.5.2PL0 Copyright (c) Steve Scherf et al.
# Submitted via: audiograbber 1.83.01
#
DISCID=79077b0a
DTITLE=Greetje Kauffeld - And Let The Music Play
DYEAR=2005
DGENRE=
TTITLE0=Greetje Kauffeld - This is all I ask (Jenkins)
TTITLE1=Greetje Kauffeld - Day by day (Schwartz)
TTITLE2=Greetje Kauffeld - Cabaret (Kander)
TTITLE3=Greetje Kauffeld - By myself (Schwartz)
TTITLE4=Greetje Kauffeld - Tristeza (Bonfa)
TTITLE5=Greetje Kauffeld - The greatest performance (Allen)
TTITLE6=Greetje Kauffeld - A time for love (Mandel)
TTITLE7=Greetje Kauffeld - Morenal (Amalio)
TTITLE8=Greetje Kauffeld - Mr Bojangels (Walker)
TTITLE9=Greetje Kauffeld - You and I (Bricusse)
EXTD=
EXTT0=
EXTT1=
EXTT2=
EXTT3=
EXTT4=
EXTT5=
EXTT6=
EXTT7=
EXTT8=
EXTT9=
PLAYORDER=
